<?xml version="1.0" encoding="UTF-8"?>
<svg width="29px" height="29px" viewBox="0 0 29 29" version="1.1" xmlns="http://www.w3.org/2000/svg" xmlns:xlink="http://www.w3.org/1999/xlink">
    <title>切片</title>
    <g id="样式规范" stroke="none" stroke-width="1" fill="none" fill-rule="evenodd">
        <g id="icon" transform="translate(-525.000000, -258.000000)" fill-rule="nonzero">
            <g id="nav-icon/explore/r" transform="translate(525.500000, 258.909091)">
                <g id="explore" transform="translate(4.000000, 4.000000)">
                    <rect id="矩形" fill="#000000" opacity="0" x="0" y="0" width="20" height="20"></rect>
                    <path d="M19.4913979,6.79808516 L19.4911888,6.79494951 C19.4840092,6.64609071 19.4612384,6.49839526 19.4232498,6.35428643 L19.4199051,6.34216193 C19.3843141,6.20924609 19.3346285,6.08051181 19.2716935,5.95814955 C18.7534753,4.9622677 17.3999206,4.51219768 15.5910697,4.57511967 C14.1118799,2.95858854 11.9854924,1.94472898 9.62184084,1.94472898 C5.15375129,1.94472898 1.53165959,5.56682066 1.53165959,10.0349102 C1.53165959,10.6227397 1.5960449,11.1953091 1.71499049,11.7473922 C0.704684648,13.0606016 0.249597598,14.3131885 0.531596875,15.2890022 L0.530133574,15.2894203 C0.532433047,15.2977821 0.535777734,15.3055167 0.53828627,15.3138784 C0.55103791,15.355478 0.56441668,15.3966595 0.579676816,15.4374229 C0.604343906,15.5045258 0.631728574,15.5703744 0.664339316,15.6341326 C0.666220703,15.6376863 0.667056875,15.64124 0.668938262,15.6447938 C0.700921875,15.7060434 0.737086348,15.7645755 0.775132227,15.8218534 C0.784957266,15.8364864 0.795200371,15.8507013 0.805443477,15.8651253 C0.83742709,15.9102787 0.87129209,15.9539687 0.907038477,15.9964045 C0.916654473,16.0081109 0.926061406,16.0198173 0.936095488,16.0313147 C0.981666914,16.0829483 1.02974686,16.1324916 1.08117148,16.1801534 C1.09057844,16.1887242 1.10082154,16.1968769 1.11043752,16.2054477 C1.16938651,16.2583482 1.23114383,16.3080332 1.29544076,16.3542864 C1.34540209,16.3904509 1.39703576,16.4251521 1.45075986,16.4583899 C1.45995777,16.4642431 1.46894662,16.4705145 1.47877166,16.4763677 C1.54148463,16.5139954 1.6071242,16.5493237 1.6748542,16.5829797 C1.6947133,16.5930138 1.71540857,16.6024207 1.73568576,16.6120367 C1.78731943,16.6362857 1.84020736,16.6596986 1.89455861,16.6818571 C1.91734432,16.6912641 1.93971195,16.700671 1.96312479,16.7096599 C2.03587182,16.7378807 2.11008217,16.7644292 2.1872191,16.7888873 L2.23634426,16.8031022 C2.33132787,16.8318064 2.42726505,16.8572548 2.52398771,16.879403 C2.5825198,16.8929908 2.64209713,16.9055334 2.70271965,16.9174488 C2.7319857,16.923093 2.76041557,16.9293643 2.79009971,16.9345904 C2.87350795,16.9492234 2.95900662,16.9626022 3.04596859,16.9738905 C3.08087881,16.9784895 3.11683424,16.9822522 3.1523716,16.9864331 C3.25328346,16.9978898 3.3544101,17.0073682 3.4556933,17.014863 C3.5771344,17.0233733 3.69876333,17.0289494 3.82047369,17.0315864 C3.89154838,17.0334678 3.9632502,17.034513 4.03620629,17.034513 C4.14305154,17.0337861 4.24988224,17.0316258 4.35666953,17.0280327 C4.40851225,17.0261513 4.45993687,17.024479 4.51240672,17.0219704 C4.59351549,17.0177896 4.67566947,17.0125635 4.75865961,17.0065013 C4.82848004,17.0014842 4.89913664,16.9950039 4.9700023,16.9885235 C5.08777202,16.9781133 5.20534331,16.9655687 5.3226582,16.9508957 L5.40523025,16.9400255 C6.67426561,17.7172764 8.13390856,18.1275568 9.62204988,18.1253098 C13.9371198,18.1253098 17.4620064,14.7469532 17.6988523,10.4910425 C17.7565483,10.4264481 17.8142442,10.3618538 17.8692226,10.2972595 L17.9208562,10.2358007 C18.002427,10.1390427 18.0823625,10.0409178 18.1606288,9.94146791 C18.2101721,9.8785459 18.258461,9.81562391 18.3052867,9.75311996 C18.3230554,9.72949809 18.3412421,9.70566715 18.3585927,9.68204527 C18.4215147,9.59675564 18.4821372,9.51167506 18.5400422,9.42701256 L18.5657546,9.38813053 C18.6159249,9.31412924 18.6640049,9.24033697 18.7102034,9.16675377 L18.7497126,9.10299559 C18.7963292,9.027531 18.8410644,8.95227543 18.8832912,8.87743797 L18.8998056,8.84900809 C18.9491398,8.7610009 18.9953383,8.67362084 19.0388193,8.58686791 C19.0430002,8.57892428 19.0463449,8.57098063 19.0505257,8.56303697 C19.0891987,8.4848548 19.1249451,8.40729979 19.1590192,8.33037189 L19.1763697,8.29086271 C19.2499529,8.11923824 19.3114117,7.95054037 19.3599097,7.78539625 L19.3640906,7.77055418 C19.3868763,7.69153584 19.4067354,7.61356273 19.4236679,7.5360077 L19.4280578,7.51698477 C19.462968,7.35246775 19.4844994,7.19213162 19.4916069,7.03639441 L19.492025,7.02531514 C19.4951606,6.94796914 19.4951606,6.87229551 19.4913979,6.79808516 L19.4913979,6.79808516 Z M9.62184084,3.40803145 C11.1495286,3.40803145 12.5565985,3.92896713 13.6787424,4.80046826 L13.6785334,4.80046826 C13.9163365,4.9850172 14.1414288,5.1853864 14.3522796,5.40021322 L14.3604323,5.40899305 C14.455547,5.5059891 14.5471079,5.60653889 14.6359513,5.70959717 C14.64933,5.72527541 14.6631269,5.74053557 14.6762966,5.75642285 C15.6617527,6.91513033 16.2160507,8.37905303 16.2451659,9.8998683 L16.2451659,9.90007734 C15.1347284,11.0397809 13.5041913,12.3003115 11.3378765,13.4283086 C9.2225683,14.5299663 7.29748939,15.1393273 5.74576164,15.4056483 C4.61146178,14.5857992 3.7646601,13.4290547 3.32587746,12.1000481 C3.23461541,11.8220087 3.16198613,11.5381959 3.10847252,11.2504965 L3.1015741,11.2124506 C3.07668753,11.0753115 3.05619083,10.9374119 3.04011539,10.7989631 L3.03760688,10.778895 C3.02063828,10.6286955 3.00885517,10.4779554 3.00227857,10.3269436 C2.99809771,10.2301566 2.99496205,10.1331605 2.99496205,10.0353283 C2.99496205,6.38083492 5.96776553,3.40803145 9.62184084,3.40803145 L9.62184084,3.40803145 Z M3.6942116,15.5643121 C3.6105742,15.5609229 3.52701075,15.5559049 3.44356879,15.549261 L3.42266447,15.5475887 C3.34149047,15.5408111 3.26049634,15.5320286 3.17975625,15.5212492 L3.1751573,15.5206221 C3.02693355,15.5013625 2.88004381,15.472948 2.73533039,15.4355415 L2.72153354,15.4313607 C2.66692039,15.4168271 2.61281668,15.4004426 2.55931602,15.3822355 C2.54321969,15.3765913 2.52837762,15.3705291 2.51269938,15.3648849 C2.45814727,15.344694 2.40457323,15.3219529 2.3521542,15.2967368 C2.30679537,15.274529 2.26262711,15.2499679 2.21982984,15.2231536 C2.19663247,15.2081935 2.17410375,15.1922211 2.15230889,15.1752827 C2.13872107,15.1648306 2.12450613,15.1543784 2.11217258,15.1437172 C2.09282814,15.1267339 2.07447198,15.1086569 2.05719422,15.089575 C2.04757822,15.0791229 2.03649895,15.0690888 2.02792816,15.0586366 C2.00756318,15.0336369 1.98951128,15.006839 1.97399502,14.9785731 C1.97211363,14.9750193 1.96939607,14.9720927 1.96751469,14.968539 C1.94696857,14.9268665 1.93179616,14.8827541 1.92236135,14.8372599 L1.9221523,14.8372599 C1.85170475,14.5318477 1.97880301,14.0606643 2.30491043,13.4862136 C2.66568544,14.2486003 3.14332167,14.949961 3.72055104,15.5649393 L3.71616113,15.5649393 C3.70842654,15.5649393 3.70131906,15.5647302 3.6942116,15.5643121 L3.6942116,15.5643121 Z M9.62184084,16.661789 C9.00537242,16.661789 8.40897215,16.5754541 7.842256,16.4172084 C9.17365219,16.0302695 10.5905471,15.466689 12.0137132,14.7256308 C13.4753434,13.9645045 14.7822815,13.1022012 15.8808036,12.2081234 C14.9792002,14.7977507 12.5147898,16.661789 9.62184084,16.661789 L9.62184084,16.661789 Z M18.0345757,7.03325877 C18.0309055,7.08387779 18.0240633,7.1342167 18.0140895,7.18397893 C18.0074001,7.21951627 17.9990384,7.25609883 17.9896315,7.29351758 C17.9852416,7.31107721 17.9808516,7.32863684 17.9758346,7.34661455 C17.9641282,7.38779605 17.9503313,7.43044088 17.9354893,7.47392186 C17.9302632,7.4896001 17.9254552,7.50486025 17.919602,7.52095658 C17.900161,7.5742626 17.8782114,7.62945 17.8541715,7.68568264 C17.8510358,7.69258105 17.8489454,7.69927045 17.8458097,7.70616887 C17.7830043,7.84861155 17.7126664,7.98761261 17.6350942,8.12258293 C17.6296591,8.13240797 17.6231787,8.14244203 17.6175346,8.15226707 C17.5884775,8.20264648 17.5571211,8.25386207 17.5251374,8.30549574 C17.35449,7.52223789 17.0675702,6.76893265 16.6739135,6.0706148 C17.2535903,6.13813576 17.6656145,6.29052826 17.8715221,6.49915338 C17.8913812,6.51901248 17.9095679,6.53908062 17.9258733,6.55998494 C17.9442691,6.5840249 17.9609925,6.60848297 17.9741623,6.63377721 C17.9904676,6.66492465 18.0034283,6.69920773 18.0134624,6.73579029 C18.0161799,6.7449882 18.0174342,6.75544035 18.0195246,6.76505633 C18.0257959,6.79306812 18.0316491,6.82191607 18.0345757,6.85264545 C18.036039,6.86602422 18.0362481,6.8804482 18.0368752,6.89424504 C18.0385476,6.92351109 18.0393837,6.95319521 18.0381295,6.9845517 C18.0375023,7.00043898 18.036039,7.0169534 18.0345757,7.03325877 L18.0345757,7.03325877 Z" id="形状" fill="#F4305D"></path>
                    <path d="M9.56080021,7.24752807 C9.56074072,7.75482109 9.83134415,8.22360462 10.2706629,8.47726831 C10.7099816,8.730932 11.2512618,8.730932 11.6905805,8.47726831 C12.1298992,8.22360462 12.4005027,7.75482109 12.4004432,7.24752807 C12.4005027,6.74023505 12.1298992,6.27145151 11.6905805,6.01778782 C11.2512618,5.76412413 10.7099816,5.76412413 10.2706629,6.01778782 C9.83134415,6.27145151 9.56074072,6.74023505 9.56080021,7.24752807 L9.56080021,7.24752807 Z" id="路径" fill="#F4305D"></path>
                </g>
            </g>
        </g>
    </g>
</svg>